<svg width="24" height="24" viewBox="0 0 24 24" fill="none" xmlns="http://www.w3.org/2000/svg">
<path d="M16.2102 15.9999H7.79019C7.45778 16.0004 7.13203 15.9068 6.85064 15.7298C6.56925 15.5528 6.34373 15.2998 6.20019 14.9999C6.03216 14.6442 5.96744 14.2484 6.01341 13.8577C6.05938 13.4669 6.21419 13.097 6.46019 12.7899L10.6702 7.68995C10.8354 7.49932 11.0397 7.34643 11.2691 7.24165C11.4986 7.13687 11.7479 7.08264 12.0002 7.08264C12.2525 7.08264 12.5018 7.13687 12.7312 7.24165C12.9607 7.34643 13.165 7.49932 13.3302 7.68995L17.5402 12.7899C17.7862 13.097 17.941 13.4669 17.987 13.8577C18.0329 14.2484 17.9682 14.6442 17.8002 14.9999C17.6566 15.2998 17.4311 15.5528 17.1497 15.7298C16.8684 15.9068 16.5426 16.0004 16.2102 15.9999Z" fill="#F3F0EE"/>
</svg>
