<svg width="24" height="24" viewBox="0 0 24 24" fill="none" xmlns="http://www.w3.org/2000/svg">
<path d="M7.78981 7.99969H16.2098C16.5422 7.9992 16.868 8.09287 17.1494 8.26984C17.4308 8.44682 17.6563 8.69986 17.7998 8.99968C17.9678 9.35543 18.0326 9.75122 17.9866 10.142C17.9406 10.5327 17.7858 10.9027 17.5398 11.2097L13.3298 16.3097C13.1646 16.5003 12.9603 16.6532 12.7309 16.758C12.5014 16.8628 12.2521 16.917 11.9998 16.917C11.7475 16.917 11.4982 16.8628 11.2688 16.758C11.0393 16.6532 10.835 16.5003 10.6698 16.3097L6.45981 11.2097C6.2138 10.9027 6.05899 10.5327 6.01302 10.142C5.96706 9.75122 6.03178 9.35543 6.19981 8.99968C6.34335 8.69986 6.56887 8.44682 6.85026 8.26984C7.13164 8.09287 7.4574 7.9992 7.78981 7.99969Z" fill="#26201E"/>
</svg>
