<svg width="24" height="24" viewBox="0 0 24 24" fill="none" xmlns="http://www.w3.org/2000/svg">
<path d="M21.8799 15.147C21.0125 17.607 19.2383 19.6427 16.9198 20.838C14.6014 22.0333 11.914 22.2978 9.40703 21.5775C6.90006 20.8572 4.76291 19.2065 3.43256 16.9629C2.10221 14.7193 1.67914 12.0522 2.24986 9.50699C2.64408 7.81923 3.45863 6.25854 4.61779 4.97001C5.77694 3.68148 7.24306 2.70694 8.87986 2.13699C9.19948 2.01777 9.54674 1.99347 9.87986 2.06699C10.213 2.13017 10.5215 2.28615 10.7699 2.51699C11.0127 2.74896 11.1862 3.04392 11.271 3.36887C11.3557 3.69382 11.3484 4.03595 11.2499 4.35699C10.7917 5.71885 10.7638 7.1887 11.1699 8.56699C11.4615 9.5915 12.0093 10.5248 12.7616 11.2789C13.514 12.033 14.446 12.583 15.4699 12.877C16.8441 13.2875 18.3122 13.2595 19.6699 12.797C19.9967 12.7041 20.343 12.7041 20.6699 12.797C20.9948 12.8841 21.2888 13.0604 21.5186 13.3061C21.7484 13.5518 21.9047 13.857 21.9699 14.187C22.0277 14.5092 21.9966 14.8411 21.8799 15.147Z" fill="#26201E"/>
</svg>
