<svg width="24" height="24" viewBox="0 0 24 24" fill="none" xmlns="http://www.w3.org/2000/svg">
<path d="M21.8801 15.147C21.0128 17.607 19.2385 19.6427 16.9201 20.838C14.6017 22.0333 11.9143 22.2978 9.40728 21.5775C6.9003 20.8572 4.76316 19.2065 3.4328 16.9629C2.10245 14.7193 1.67938 12.0522 2.2501 9.50699C2.64433 7.81923 3.45888 6.25854 4.61803 4.97001C5.77718 3.68148 7.24331 2.70694 8.8801 2.13699C9.19972 2.01777 9.54699 1.99347 9.8801 2.06699C10.2132 2.13017 10.5217 2.28615 10.7701 2.51699C11.0129 2.74896 11.1864 3.04392 11.2712 3.36887C11.356 3.69382 11.3487 4.03595 11.2501 4.35699C10.792 5.71885 10.7641 7.1887 11.1701 8.56699C11.4617 9.5915 12.0095 10.5248 12.7619 11.2789C13.5142 12.033 14.4463 12.583 15.4701 12.877C16.8444 13.2875 18.3124 13.2595 19.6701 12.797C19.997 12.7041 20.3432 12.7041 20.6701 12.797C20.995 12.8841 21.2891 13.0604 21.5188 13.3061C21.7486 13.5518 21.9049 13.857 21.9701 14.187C22.028 14.5092 21.9968 14.8411 21.8801 15.147Z" fill="#F3F0EE"/>
</svg>
