<svg width="24" height="24" viewBox="0 0 24 24" fill="none" xmlns="http://www.w3.org/2000/svg">
<g clip-path="url(#clip0_19_160)">
<mask id="mask0_19_160" style="mask-type:luminance" maskUnits="userSpaceOnUse" x="0" y="0" width="24" height="24">
<path d="M0 0H24V24H0V0Z" fill="white"/>
</mask>
<g mask="url(#mask0_19_160)">
<path d="M12 20C12.2652 20 12.5196 20.1054 12.7071 20.2929C12.8946 20.4804 13 20.7348 13 21V23C13 23.2652 12.8946 23.5196 12.7071 23.7071C12.5196 23.8946 12.2652 24 12 24C11.7348 24 11.4804 23.8946 11.2929 23.7071C11.1054 23.5196 11 23.2652 11 23V21C11 20.7348 11.1054 20.4804 11.2929 20.2929C11.4804 20.1054 11.7348 20 12 20ZM4.929 17.657C5.02125 17.5615 5.13159 17.4853 5.2536 17.4329C5.3756 17.3805 5.50682 17.3529 5.6396 17.3517C5.77238 17.3506 5.90406 17.3759 6.02695 17.4262C6.14985 17.4765 6.2615 17.5507 6.35539 17.6446C6.44929 17.7385 6.52354 17.8501 6.57382 17.973C6.6241 18.0959 6.6494 18.2276 6.64825 18.3604C6.6471 18.4932 6.61951 18.6244 6.5671 18.7464C6.51469 18.8684 6.43851 18.9788 6.343 19.071L4.929 20.485C4.7404 20.6672 4.4878 20.768 4.2256 20.7657C3.9634 20.7634 3.71259 20.6582 3.52718 20.4728C3.34177 20.2874 3.2366 20.0366 3.23433 19.7744C3.23205 19.5122 3.33284 19.2596 3.515 19.071L4.929 17.657ZM17.657 17.657C17.8445 17.4695 18.0988 17.3642 18.364 17.3642C18.6292 17.3642 18.8835 17.4695 19.071 17.657L20.485 19.071C20.6672 19.2596 20.768 19.5122 20.7657 19.7744C20.7634 20.0366 20.6582 20.2874 20.4728 20.4728C20.2874 20.6582 20.0366 20.7634 19.7744 20.7657C19.5122 20.768 19.2596 20.6672 19.071 20.485L17.657 19.071C17.4695 18.8835 17.3642 18.6292 17.3642 18.364C17.3642 18.0988 17.4695 17.8445 17.657 17.657ZM12 6C13.5913 6 15.1174 6.63214 16.2426 7.75736C17.3679 8.88258 18 10.4087 18 12C18 13.5913 17.3679 15.1174 16.2426 16.2426C15.1174 17.3679 13.5913 18 12 18C10.4087 18 8.88258 17.3679 7.75736 16.2426C6.63214 15.1174 6 13.5913 6 12C6 10.4087 6.63214 8.88258 7.75736 7.75736C8.88258 6.63214 10.4087 6 12 6ZM3 11C3.26522 11 3.51957 11.1054 3.70711 11.2929C3.89464 11.4804 4 11.7348 4 12C4 12.2652 3.89464 12.5196 3.70711 12.7071C3.51957 12.8946 3.26522 13 3 13H1C0.734784 13 0.48043 12.8946 0.292893 12.7071C0.105357 12.5196 0 12.2652 0 12C0 11.7348 0.105357 11.4804 0.292893 11.2929C0.48043 11.1054 0.734784 11 1 11H3ZM23 11C23.2652 11 23.5196 11.1054 23.7071 11.2929C23.8946 11.4804 24 11.7348 24 12C24 12.2652 23.8946 12.5196 23.7071 12.7071C23.5196 12.8946 23.2652 13 23 13H21C20.7348 13 20.4804 12.8946 20.2929 12.7071C20.1054 12.5196 20 12.2652 20 12C20 11.7348 20.1054 11.4804 20.2929 11.2929C20.4804 11.1054 20.7348 11 21 11H23ZM3.515 3.515C3.70253 3.32753 3.95684 3.22221 4.222 3.22221C4.48716 3.22221 4.74147 3.32753 4.929 3.515L6.343 4.929C6.43851 5.02125 6.51469 5.13159 6.5671 5.2536C6.61951 5.3756 6.6471 5.50682 6.64825 5.6396C6.6494 5.77238 6.6241 5.90406 6.57382 6.02695C6.52354 6.14985 6.44929 6.2615 6.35539 6.35539C6.2615 6.44929 6.14985 6.52354 6.02695 6.57382C5.90406 6.6241 5.77238 6.6494 5.6396 6.64825C5.50682 6.6471 5.3756 6.61951 5.2536 6.5671C5.13159 6.51469 5.02125 6.43851 4.929 6.343L3.515 4.929C3.32753 4.74147 3.22221 4.48716 3.22221 4.222C3.22221 3.95684 3.32753 3.70253 3.515 3.515ZM19.071 3.515C19.2596 3.33284 19.5122 3.23205 19.7744 3.23433C20.0366 3.2366 20.2874 3.34177 20.4728 3.52718C20.6582 3.71259 20.7634 3.9634 20.7657 4.2256C20.768 4.4878 20.6672 4.7404 20.485 4.929L19.071 6.343C18.9788 6.43851 18.8684 6.51469 18.7464 6.5671C18.6244 6.61951 18.4932 6.6471 18.3604 6.64825C18.2276 6.6494 18.0959 6.6241 17.973 6.57382C17.8501 6.52354 17.7385 6.44929 17.6446 6.35539C17.5507 6.2615 17.4765 6.14985 17.4262 6.02695C17.3759 5.90406 17.3506 5.77238 17.3517 5.6396C17.3529 5.50682 17.3805 5.3756 17.4329 5.2536C17.4853 5.13159 17.5615 5.02125 17.657 4.929L19.071 3.515ZM12 0C12.2652 0 12.5196 0.105357 12.7071 0.292893C12.8946 0.48043 13 0.734784 13 1V3C13 3.26522 12.8946 3.51957 12.7071 3.70711C12.5196 3.89464 12.2652 4 12 4C11.7348 4 11.4804 3.89464 11.2929 3.70711C11.1054 3.51957 11 3.26522 11 3V1C11 0.734784 11.1054 0.48043 11.2929 0.292893C11.4804 0.105357 11.7348 0 12 0Z" fill="#26201E"/>
</g>
</g>
<defs>
<clipPath id="clip0_19_160">
<rect width="24" height="24" fill="white"/>
</clipPath>
</defs>
</svg>
