<svg width="68" height="68" viewBox="0 0 68 68" fill="none" xmlns="http://www.w3.org/2000/svg">
<g clip-path="url(#clip0_70_199)">
<path d="M62.5936 27.2735L63.2338 26.4232C64.1033 22.6728 61.184 21.1662 61.184 21.1662C61.3884 18.0602 56.8443 16.7814 56.8443 16.7814C56.8443 8.30526 47.0686 9.27074 47.0686 9.27074C45.6927 5.39947 40.0975 6.71462 40.0975 6.71462C38.6703 6.20828 37.3188 5.76211 36.0104 5.58468C34.7036 5.40726 32.0592 5.28897 30.7405 5.31647C29.4155 5.34396 26.7649 5.5603 25.4627 5.80621C22.739 6.32086 21.289 7.48452 21.289 7.48452C14.1893 7.34289 13.5221 11.5093 13.5221 11.5093C7.3152 10.2684 6.88149 15.8128 6.88149 15.8128C-0.317864 18.276 2.37314 25.6217 2.37314 25.6217C-0.187126 29.1324 2.79285 30.7043 2.79285 30.7043C1.8476 38.3706 13.0095 38.6943 13.0095 38.6943L14.1576 38.4137C13.658 42.0463 15.9189 46.0607 22.3359 47.0106C22.3359 47.0106 24.9362 47.2758 28.7955 46.7435C34.5837 51.7857 34.9318 59.5085 36.1619 62.5216L42.195 61.5173C41.5875 59.4213 41.5205 57.3591 41.6762 55.5931C42.54 56.004 43.4712 56.3428 44.4585 56.5913C50.5004 58.1124 56.3146 55.7072 57.444 51.2197C57.6126 50.5509 57.6666 49.8739 57.6178 49.201C60.0764 49.2493 62.7845 48.1224 64.8602 44.1235C64.8597 44.1235 70.1644 32.2104 62.5936 27.2735Z" fill="#F3F0EE"/>
<path d="M64.4382 27.2165C64.4797 27.1298 64.5113 27.039 64.5331 26.9451C65.2657 23.7846 63.7762 21.6622 62.4932 20.6568C62.2022 18.2864 59.9677 16.77 58.1389 16.0379C57.9527 13.805 57.105 11.9918 55.6114 10.6383C53.1668 8.42354 49.6644 8.12472 47.9518 8.12472C47.9342 8.12472 47.9171 8.12472 47.8994 8.12472C46.231 5.27289 42.4132 5.14111 40.187 5.55459C38.8812 5.10843 37.5645 4.75357 36.269 4.4978C35.5474 4.35565 34.8455 4.82465 34.7028 5.54733C34.5601 6.2695 35.0301 6.97091 35.7528 7.11358C37.0389 7.36779 38.3515 7.73043 39.6521 8.19164C39.8934 8.27776 40.1538 8.29177 40.4028 8.23314C40.4474 8.22277 44.8473 7.22253 45.8123 9.93843C46.0172 10.5138 46.589 10.8759 47.197 10.8188C47.239 10.8147 51.4382 10.4458 53.8288 12.6217C54.6697 13.3874 55.1891 14.3752 55.4012 15.6187C53.6026 15.7049 50.7969 16.3368 49.3365 19.2285C49.0045 19.8859 49.2675 20.6874 49.9248 21.0199C50.1178 21.117 50.3233 21.1631 50.5251 21.1631C51.0122 21.1631 51.4817 20.8954 51.7162 20.4311C52.9458 17.9979 56.001 18.2423 56.5556 18.3087C57.0484 18.4706 59.9718 19.5128 59.8541 21.2996C59.8193 21.8287 60.1015 22.3283 60.5731 22.5717C60.5778 22.5737 61.0509 22.8399 61.4613 23.3986C62.0003 24.1322 62.1773 25.0334 61.9894 26.0803L61.8997 26.1996C59.8302 26.4268 56.7179 27.729 56.2931 31.5785C56.2126 32.3105 56.7403 32.9694 57.4723 33.0503C57.5221 33.0555 57.5714 33.0581 57.6201 33.0581C58.2909 33.0581 58.8684 32.5533 58.9436 31.8711C59.2128 29.4317 61.3078 28.9466 62.211 28.8512C68.0532 33.1365 63.9292 43.13 63.6563 43.7708C62.2099 46.5359 60.3947 47.9507 58.1192 48.0799C57.1439 47.2649 54.5904 45.4527 50.1277 44.3835C49.4112 44.2117 48.6916 44.6532 48.5199 45.3692C48.3487 46.0856 48.7897 46.8052 49.5061 46.9764C53.3193 47.89 55.4962 49.3909 56.2993 50.0363C56.2889 50.402 56.2407 50.7636 56.1519 51.1149C55.2036 54.8824 50.1043 56.8585 44.7846 55.5189C43.9042 55.2969 43.0513 54.9913 42.2497 54.61C41.8554 54.4222 41.3942 54.4398 41.015 54.6567C40.6363 54.873 40.3872 55.2621 40.3489 55.6969C40.1963 57.4229 40.2705 59.0857 40.5683 60.6576L37.0675 61.2397C36.918 60.7095 36.7681 60.0895 36.6057 59.4156C35.8234 56.1757 34.6934 51.5019 31.3711 47.6669C34.1368 46.9935 36.7977 46.5489 39.3056 46.343C40.0397 46.2828 40.5859 45.639 40.5252 44.9054C40.4651 44.1713 39.8207 43.626 39.0877 43.6857C35.7731 43.9575 32.2193 44.6206 28.5234 45.6556C25.1351 46.1142 22.7621 45.9305 22.4965 45.9072C16.7171 45.0387 15.1031 41.5467 15.4787 38.8162C15.5389 38.3789 15.3786 37.94 15.0507 37.6443C14.7229 37.3486 14.2705 37.2344 13.8414 37.3392L12.8749 37.5758C11.1893 37.4923 6.97618 36.8396 5.07997 34.6316C4.25612 33.6719 3.94069 32.5129 4.11657 31.0882C4.18401 30.5383 3.9049 30.004 3.41515 29.7461C3.40945 29.743 2.84188 29.4011 2.70233 28.7988C2.53631 28.0813 3.01775 27.2222 3.45095 26.6281C3.71294 26.2686 3.77831 25.8017 3.62527 25.3841C3.61489 25.356 2.63177 22.5198 3.75445 20.1655C4.37908 18.8555 5.57646 17.8895 7.31392 17.295C7.81715 17.1227 8.16889 16.6771 8.2104 16.1469C8.21195 16.1298 8.3816 14.439 9.61322 13.5207C10.4641 12.8868 11.6915 12.7244 13.2609 13.0382C13.6168 13.1088 13.9856 13.0325 14.2834 12.8255C14.5812 12.6185 14.782 12.2995 14.8391 11.941C14.8437 11.9119 15.4409 9.13741 20.6429 9.03884C21.4319 10.1164 23.173 12.9475 21.8812 15.4839C21.5471 16.1401 21.8086 16.9432 22.4644 17.2773C22.6584 17.3759 22.8649 17.4226 23.0682 17.4226C23.5538 17.4226 24.0223 17.1565 24.2578 16.6942C24.7382 15.7505 24.9593 14.8042 25.0049 13.8906C25.7245 13.5845 26.8451 13.2556 27.7395 13.5218C28.3211 13.694 28.7683 14.1163 29.107 14.8115C29.3379 15.2857 29.8126 15.5612 30.307 15.5612C30.5026 15.5612 30.7018 15.5176 30.8901 15.4257C31.5521 15.1036 31.8271 14.3051 31.5044 13.6432C30.8388 12.2777 29.7996 11.3516 28.4985 10.9651C27.1128 10.5537 25.7027 10.8162 24.6594 11.168C24.3113 9.97786 23.7639 8.9439 23.2825 8.18282C23.9102 7.90941 24.758 7.59087 25.8018 7.31643C26.5141 7.12966 26.94 6.40023 26.7527 5.68844C26.5654 4.97562 25.836 4.55072 25.1242 4.73749C23.0169 5.29104 21.5731 6.01113 20.9329 6.36859C15.5327 6.36962 13.4451 8.7286 12.6591 10.2559C10.7982 10.0801 9.23087 10.4655 7.98783 11.4061C6.53883 12.5023 5.94533 14.08 5.70668 15.0543C3.65795 15.9124 2.19339 17.2431 1.34723 19.0174C0.119234 21.5932 0.592377 24.3646 0.916625 25.6196C0.101076 26.9358 -0.172331 28.2053 0.104707 29.4006C0.339204 30.4143 0.9187 31.1194 1.40689 31.5562C1.34515 33.4031 1.89819 35.0192 3.05666 36.3686C5.92873 39.7122 11.6531 40.1796 12.7836 40.2398C13.0746 43.958 15.9052 47.627 22.1411 48.5499C22.1609 48.553 22.1811 48.5556 22.2013 48.5577C22.2568 48.5634 22.9474 48.6309 24.1141 48.6309C25.1735 48.6309 26.6272 48.5748 28.3543 48.3652C32.0325 51.8422 33.1734 56.5607 34.0133 60.0413C34.3194 61.3082 34.5835 62.4029 34.9279 63.2464C35.1349 63.7538 35.6273 64.0755 36.1616 64.0755C36.2343 64.0755 36.3074 64.0697 36.3811 64.0573L42.4142 63.0534C42.7898 62.9906 43.1208 62.7707 43.3236 62.4485C43.5265 62.1263 43.582 61.7326 43.4757 61.3668C43.1467 60.2322 42.9683 59.0239 42.9418 57.757C43.333 57.8878 43.7309 58.0034 44.133 58.1046C47.3314 58.9098 50.5878 58.735 53.3032 57.6118C56.1556 56.432 58.0855 54.3558 58.7376 51.7659C58.8274 51.408 58.8902 51.0438 58.9275 50.676C61.2035 50.3595 63.9432 49.0049 66.0439 44.9588C66.0563 44.9349 66.0677 44.9111 66.0786 44.8867C66.1362 44.7575 67.4949 41.6727 67.8923 37.9109C68.3831 33.262 67.192 29.5967 64.4382 27.2165Z" fill="#26201E"/>
<path d="M31.0139 23.2984C31.0279 23.3757 31.3745 25.2133 32.6492 27.0166C32.9532 27.4467 33.3257 27.896 33.776 28.3266C33.5363 29.6962 31.4414 30.4459 31.3921 30.463C30.6969 30.7001 30.3244 31.4549 30.5589 32.1512C30.7467 32.7078 31.2655 33.0591 31.8222 33.0591C31.9638 33.0591 32.1075 33.0362 32.2486 32.9885C33.4813 32.573 35.2722 31.538 36.0644 29.8747C37.101 30.3426 38.3507 30.6456 39.8516 30.6456C39.9471 30.6456 40.0441 30.6441 40.1416 30.642C40.8778 30.6228 41.4594 30.0111 41.4402 29.275C41.422 28.5502 40.829 27.9754 40.1079 27.9754C40.0965 27.9754 40.0851 27.9759 40.0737 27.9759C34.7238 28.1103 33.681 23.0473 33.6359 22.8149C33.5015 22.0932 32.8084 21.6149 32.0857 21.7477C31.3615 21.8795 30.8816 22.5742 31.0139 23.2984Z" fill="#26201E"/>
<path d="M47.2699 35.0054C49.5848 30.9604 48.6706 27.8325 47.4966 25.9208C46.2562 23.9021 44.4689 22.8386 44.3937 22.7945C43.7602 22.423 42.9493 22.6347 42.5748 23.2656C42.2002 23.8969 42.4093 24.7135 43.0386 25.0912C43.0521 25.099 44.39 25.9125 45.2699 27.3921C46.3807 29.2597 46.2743 31.3754 44.955 33.6809C44.5893 34.3201 44.8113 35.1346 45.4505 35.5004C45.659 35.6202 45.8868 35.6767 46.1109 35.6767C46.5742 35.6767 47.0235 35.436 47.2699 35.0054Z" fill="#26201E"/>
<path d="M61.4007 38.1219C61.9999 37.6939 62.1389 36.8613 61.7109 36.262C61.2829 35.6628 60.4502 35.5238 59.851 35.9518C58.5509 36.8804 57.3681 37.2296 56.3351 36.9889C54.7787 36.6273 53.8947 35.0294 53.874 34.992C53.5316 34.344 52.73 34.094 52.0789 34.4333C51.4258 34.7741 51.1726 35.5793 51.5134 36.2319C51.5658 36.3321 52.7212 38.5001 55.0283 39.3717C54.6153 41.0028 54.3523 43.8811 56.7626 45.8966C57.0122 46.1052 57.3151 46.2074 57.6171 46.2074C57.9984 46.2074 58.3766 46.0445 58.6407 45.7296C59.1128 45.1646 59.0381 44.3236 58.4731 43.851C57.0018 42.6204 57.4153 40.6013 57.7053 39.6871C58.9094 39.5398 60.1462 39.0179 61.4007 38.1219Z" fill="#26201E"/>
<path d="M22.1481 29.5591C22.0557 28.8286 21.3885 28.3124 20.6576 28.4043C19.9271 28.4966 19.4099 29.1643 19.5027 29.8948C19.7341 31.7194 18.3027 33.0475 17.455 33.6633C15.3212 32.607 12.9316 33.0096 12.8128 33.0304C12.0901 33.158 11.6092 33.8459 11.7337 34.5691C11.8582 35.2923 12.5472 35.7784 13.2709 35.6576C13.2938 35.6534 15.5443 35.2928 16.8911 36.4601C17.66 37.1268 18.0319 38.2417 17.9961 39.7737C17.979 40.5099 18.5621 41.1205 19.2983 41.1376C19.3087 41.1381 19.3191 41.1381 19.33 41.1381C20.0516 41.1381 20.6451 40.5618 20.6622 39.836C20.7043 38.043 20.3224 36.5675 19.5261 35.4303C20.8329 34.3455 22.505 32.3741 22.1481 29.5591Z" fill="#26201E"/>
<path d="M9.60963 22.5694C9.46489 22.9159 9.24492 23.2261 8.96736 23.5084C8.24416 24.2456 7.33626 24.5195 7.30202 24.5299C6.59646 24.7255 6.17986 25.4539 6.37078 26.162C6.53109 26.7566 7.0696 27.1483 7.65688 27.1483C7.77205 27.1483 7.88878 27.1332 8.00551 27.1016C8.08956 27.0787 9.76423 26.6113 11.0576 25.1732C11.9479 25.8341 12.9937 26.1791 14.1398 26.1791C14.4588 26.1791 14.7852 26.1527 15.1182 26.0987C16.629 25.8554 17.7605 25.1431 17.8844 25.0627C18.5023 24.6622 18.6787 23.8368 18.2782 23.2189C17.8777 22.601 17.0523 22.4246 16.4339 22.8251C16.4266 22.8298 15.6505 23.3118 14.6944 23.4664C13.7336 23.6215 12.9751 23.4025 12.3499 22.7821C12.6519 21.6329 12.6155 20.3525 12.2363 18.9564C12.0438 18.2457 11.3118 17.826 10.6005 18.019C9.88978 18.212 9.47008 18.944 9.66307 19.6547C9.96916 20.7837 9.96086 21.7279 9.63453 22.5112C9.62623 22.5304 9.61793 22.5496 9.60963 22.5694Z" fill="#26201E"/>
<path d="M40.8121 11.2273C38.56 9.89136 35.9717 10.5814 35.8628 10.6115C35.153 10.807 34.7359 11.5411 34.9315 12.2509C35.1266 12.9606 35.8617 13.3772 36.5709 13.1826C36.5865 13.1779 38.1844 12.7686 39.4513 13.5203C40.2051 13.9676 40.7254 14.7836 40.9989 15.9452C41.1436 16.5595 41.6909 16.9735 42.2958 16.9735C42.397 16.9735 42.4992 16.9615 42.6019 16.9377C43.3189 16.7691 43.7635 16.051 43.5944 15.3346C43.1487 13.4405 42.2128 12.0584 40.8121 11.2273Z" fill="#26201E"/>
<path d="M35.9827 36.3665C35.0328 37.9986 33.66 38.8728 31.9034 38.9646C30.4923 39.0378 29.3291 38.5828 29.3006 38.5708C28.621 38.2928 27.8448 38.6165 27.5642 39.2951C27.2825 39.9757 27.6057 40.7555 28.2858 41.0367C28.4425 41.1015 29.7955 41.6395 31.5864 41.6395C31.6964 41.6395 31.8085 41.6375 31.9221 41.6328C33.8255 41.5607 36.4756 40.8209 38.2877 37.7076C38.6581 37.0715 38.4423 36.2549 37.8058 35.8845C37.1697 35.5141 36.3531 35.7299 35.9827 36.3665Z" fill="#26201E"/>
<path d="M45.6362 44.186C45.3213 43.7165 44.7319 43.4914 44.182 43.6398C43.6502 43.7824 43.2565 44.2488 43.2004 44.7962C43.1439 45.3492 43.4557 45.8955 43.9574 46.1315C44.4466 46.3614 45.0432 46.2716 45.438 45.9002C45.9101 45.4566 45.9952 44.7225 45.6362 44.186Z" fill="#26201E"/>
<path d="M29.5092 5.82444C29.7209 6.33701 30.2506 6.67319 30.8041 6.64673C31.3463 6.62027 31.8277 6.25659 32.002 5.74298C32.1789 5.22367 32.0103 4.63328 31.5865 4.28465C31.1388 3.9163 30.483 3.8831 30.001 4.20579C29.4796 4.55494 29.269 5.24286 29.5092 5.82444Z" fill="#26201E"/>
</g>
<defs>
<clipPath id="clip0_70_199">
<rect width="68" height="68" fill="white"/>
</clipPath>
</defs>
</svg>
